<?xml version="1.0" encoding="utf-8"?>
<!-- Svg Vector Icons : http://www.onlinewebfonts.com/icon -->
<!DOCTYPE svg PUBLIC "-//W3C//DTD SVG 1.1//EN" "http://www.w3.org/Graphics/SVG/1.1/DTD/svg11.dtd">
<svg version="1.1" xmlns="http://www.w3.org/2000/svg" xmlns:xlink="http://www.w3.org/1999/xlink" x="0px" y="0px" viewBox="0 0 256 256" enable-background="new 0 0 256 256" xml:space="preserve">
<metadata> Svg Vector Icons : http://www.onlinewebfonts.com/icon </metadata>
<g><g><path fill="#888" d="M216.5,231.2h-118C82.2,231.2,69,218,69,201.7v-88.5C69,97,82.2,83.8,98.5,83.8h44.3v29.5h-29.5c-8.1,0-14.8,6.6-14.8,14.8v59c0,8.2,6.6,14.8,14.8,14.8h88.5c8.2,0,14.8-6.6,14.8-14.8v-59c0-8.1-6.6-14.8-14.8-14.8V83.8h14.8c16.3,0,29.5,13.2,29.5,29.5v88.5C246,218,232.8,231.2,216.5,231.2z M157.5,172.2h-44.2v-29.5h29.5c8.2,0,14.8-6.6,14.8-14.8V69c0-8.1-6.6-14.8-14.8-14.8H54.3c-8.1,0-14.8,6.6-14.8,14.8v59c0,8.2,6.6,14.8,14.8,14.8v29.5H39.5C23.2,172.2,10,159,10,142.7V54.3C10,38,23.2,24.8,39.5,24.8h118c16.3,0,29.5,13.2,29.5,29.5v88.5C187,159,173.8,172.2,157.5,172.2z"/></g></g>
</svg>
